<svg width="25" height="24" viewBox="0 0 25 24" fill="none" xmlns="http://www.w3.org/2000/svg">
<path d="M12.1668 22.2454C17.7618 22.2454 22.4122 17.6048 22.4122 11.9999C22.4122 6.40495 17.7717 1.75452 12.1767 1.75452C11.6444 1.75452 11.3834 2.07595 11.3834 2.59795V6.49537C11.3834 6.92737 11.6748 7.2788 12.1162 7.2788C12.5585 7.2788 12.8598 6.92737 12.8598 6.49537V3.49195C17.2797 3.84337 20.6945 7.49995 20.6945 11.9999C20.6992 13.1216 20.4818 14.2331 20.055 15.2704C19.6283 16.3077 19.0005 17.2503 18.2078 18.0439C17.4151 18.8375 16.4733 19.4665 15.4365 19.8945C14.3997 20.3226 13.2885 20.5412 12.1668 20.5379C7.42553 20.5379 3.61896 16.7408 3.62882 11.9999C3.63867 9.89052 4.3921 7.97223 5.64782 6.49537C5.95896 6.10366 5.9791 5.6318 5.64782 5.27995C5.3161 4.91866 4.75382 4.94866 4.3921 5.4008C2.85524 7.18837 1.92139 9.4988 1.92139 11.9999C1.92139 17.6048 6.56196 22.2454 12.1668 22.2454ZM13.774 13.5467C14.5672 12.7229 14.407 11.5979 13.4525 10.9354L8.13824 7.22866C7.63639 6.87723 7.11396 7.39966 7.46539 7.90152L11.1721 13.2154C11.8351 14.1698 12.9601 14.3404 13.774 13.5467Z" fill="black"/>
</svg>
